<svg width="1025" height="769" viewBox="0 0 1025 769" fill="none" xmlns="http://www.w3.org/2000/svg">
<path fill-rule="evenodd" clip-rule="evenodd" d="M777.297 517.093C780.181 521.488 783.065 525.882 786.094 530.174C786.539 530.805 786.994 531.44 787.453 532.08C791.743 538.066 796.338 544.479 796.269 552.092C796.236 555.837 795.692 559.974 792.082 561.986C792 560.528 789.912 561.97 789.21 562.454C789.169 562.483 789.132 562.508 789.101 562.529C787.849 563.381 787.601 563.741 787.288 563.811C786.998 563.876 786.652 563.691 785.402 563.415C783.827 563.067 782.338 563.025 780.888 562.984C778.452 562.915 776.125 562.849 773.679 561.346C771.312 559.892 768.954 558.425 766.597 556.959C760.714 553.301 754.836 549.645 748.82 546.18C730.61 535.693 712.581 524.955 695.688 512.421C686.324 505.473 676.703 498.754 667.065 492.023C646.307 477.527 625.467 462.973 606.933 445.952C579.814 421.048 551.355 396.339 519.174 378.124C518.691 377.851 518.007 377.547 517.242 377.207C514.588 376.029 510.962 374.419 511.404 372.159C511.777 370.257 514.959 367.786 517.363 365.919C518.186 365.28 518.917 364.712 519.414 364.262C521.812 362.089 524.244 359.958 526.677 357.827C531.111 353.943 535.544 350.059 539.76 345.929C551.813 334.122 563.776 321.091 573.444 307.237C577.675 301.173 580.042 294.498 582.474 287.639C582.745 286.874 583.016 286.108 583.292 285.339C585.715 278.575 587.955 270.248 584.022 263.557C582.201 260.457 579.687 259.2 576.171 259.435C575.706 259.466 575.319 259.507 574.992 259.542C573.27 259.726 573.207 259.732 572.238 257.138C572.085 256.729 571.936 256.312 571.785 255.892C570.712 252.895 569.576 249.723 566.655 248.036C563.495 246.211 561.258 247.839 558.757 249.658C558.527 249.826 558.294 249.995 558.058 250.163C557.533 249.405 556.988 248.556 556.416 247.664C553.487 243.099 549.84 237.415 544.417 237.043C537.69 236.582 533.852 244.841 531.51 249.879L531.468 249.969C524.558 264.839 515.566 278.729 505.896 291.971C495.414 306.325 484.698 320.926 473.149 334.442C472.622 335.059 472.079 335.738 471.517 336.44C469.475 338.991 467.185 341.854 464.483 343.215C460.949 344.997 458.016 343.323 455.029 341.274C453.391 340.15 451.763 339.02 450.138 337.89C444.777 334.166 439.437 330.457 433.813 327.065C427.598 323.315 421.249 319.807 414.898 316.298C412.954 315.224 411.01 314.149 409.069 313.068C407.62 312.261 406.2 311.388 404.78 310.514C402.62 309.186 400.458 307.857 398.187 306.754C396.184 305.781 394.079 305.089 391.973 304.396C390.392 303.876 388.81 303.356 387.271 302.716C399.616 299.036 412.578 303.318 424.423 307.23C425.226 307.496 426.025 307.759 426.817 308.019C433.293 310.138 440.066 312.345 446.98 311.775C452.96 311.283 458.387 308.081 463.117 304.584C471.667 298.262 472.338 288.767 469.55 279.17C467.664 272.674 465.189 266.325 462.717 259.98C460.985 255.536 459.254 251.094 457.727 246.606C456.041 241.65 454.879 236.387 458.718 232.105C462.153 228.273 466.598 227.802 471.286 229.31C471.752 229.46 472.215 229.609 472.677 229.758C483.484 233.243 493.237 236.388 504.924 236.055C514.451 235.784 526.569 233.08 532.988 225.338C536.506 221.094 536.64 215.259 536.654 209.995C536.672 203.756 536.278 197.482 535.405 191.306C535.07 188.935 534.619 186.562 534.17 184.193C532.529 175.552 530.896 166.949 534.874 158.552C536.062 156.043 539.37 150.198 542.644 149.848C546.179 149.47 547.011 153.706 547.533 156.364C547.596 156.686 547.655 156.985 547.713 157.249C548.254 156.908 548.774 156.803 549.235 156.71C550.076 156.54 550.722 156.41 550.945 154.956C554.325 158.497 557.234 162.404 560.146 166.315C561.396 167.995 562.647 169.675 563.936 171.328C565.771 173.68 568.065 175.817 570.361 177.956C573.215 180.614 576.07 183.273 578.042 186.347C580.05 189.476 578.523 193.682 577.091 197.626C576.368 199.618 575.67 201.542 575.463 203.227C574.768 208.886 576.245 215.362 580.11 219.677C581.918 221.694 584.129 223.096 586.801 223.638C588.223 223.926 589.608 223.614 590.946 223.312C592.109 223.05 593.238 222.796 594.326 222.95C595.973 223.183 596.284 224.142 596.753 225.592C596.837 225.851 596.927 226.126 597.029 226.415C597.957 229.031 599.141 231.501 601.332 233.339C602.249 234.107 603.191 234.67 604.11 235.22C605.645 236.138 607.113 237.016 608.282 238.741C608.685 239.337 609.046 239.928 609.398 240.505C610.469 242.261 611.463 243.892 613.366 245.149C614.236 245.723 615.24 246.194 616.246 246.666C619.146 248.026 622.061 249.392 621.79 253.257L623.53 251.874C624.875 256.197 626.726 260.383 628.703 264.448C629.629 266.353 630.105 267.365 630.057 269.484C630.047 269.941 629.958 270.361 629.872 270.768C629.695 271.603 629.53 272.379 630.087 273.288C630.807 274.463 632.181 274.913 633.545 275.36C634.691 275.735 635.83 276.108 636.568 276.906C637.365 277.77 637.38 278.781 637.395 279.773C637.411 280.841 637.427 281.885 638.42 282.695C637.613 282.943 635.378 284.749 636.218 285.846C636.948 286.798 637.271 286.387 637.598 285.97C637.813 285.696 638.03 285.419 638.365 285.522C639.415 285.844 639.779 286.698 640.13 287.52C640.429 288.223 640.719 288.903 641.419 289.207C641.735 289.345 641.706 287.85 641.69 287.499C646.253 296.493 651.223 305.269 656.193 314.044C662.661 325.463 669.127 336.879 674.688 348.766C692.191 386.181 712.999 422.612 736.01 456.93C737.816 459.623 739.68 462.31 741.548 465.003C745.297 470.407 749.064 475.836 752.414 481.393C755.593 486.669 759.267 491.567 762.945 496.472C765.101 499.347 767.259 502.224 769.32 505.18C772.053 509.1 774.675 513.097 777.297 517.093ZM641.686 287.49C641.683 287.395 641.686 287.412 641.69 287.499C641.689 287.496 641.687 287.493 641.686 287.49ZM269.247 257.449C269.193 258.137 269.138 258.841 269.372 259.639C269.61 260.455 270.29 261.068 270.964 261.675C271.446 262.11 271.925 262.541 272.236 263.042C274.739 259.357 274.652 251.465 273.125 247.525C272.404 245.664 271.04 243.241 269.96 241.607C269.791 241.352 269.514 241.074 269.246 240.805C268.95 240.508 268.666 240.223 268.549 239.991C268.363 239.621 268.278 239.118 268.192 238.608C268.1 238.067 268.008 237.519 267.791 237.118C266.577 234.862 263.92 234.305 261.585 234.572C261.334 234.601 261.08 234.629 260.822 234.657C258.682 234.891 256.343 235.147 254.433 236.076C253.839 236.365 253.334 236.719 252.85 237.058C251.724 237.847 250.717 238.553 248.993 238.157C249.611 239.222 249.136 240.002 248.641 240.816C248.355 241.287 248.061 241.769 247.969 242.325C247.645 244.271 248.273 246.015 249.558 247.492C251.94 250.23 255.374 250.47 258.721 250.704C259.114 250.731 259.506 250.759 259.895 250.79C263.022 251.042 266.869 251.56 268.707 254.49C269.393 255.585 269.321 256.502 269.247 257.449ZM283.567 248.776C285.089 251.385 288.519 258.351 288.257 261.614V269.943C287.978 272.851 283.064 277.822 280.527 280.389C280.24 280.679 279.984 280.938 279.768 281.16C274.484 286.599 268.745 287.295 260.914 286.601C254.281 286.013 245.689 283.802 241.199 278.529C236.889 273.47 236.95 265.63 237.588 259.4C238.478 250.699 242.295 242.773 247.381 235.737C250.36 231.616 258.511 222.021 264.734 224.12C265.652 224.43 266.355 225.252 266.983 225.985C267.098 226.12 267.211 226.252 267.322 226.378C267.83 227.037 268.333 227.699 268.833 228.365C269.143 229.24 269.701 229.498 270.505 229.14C271.235 230.151 272.065 231.079 272.894 232.005C274.543 233.849 276.187 235.686 277.022 238.157C277.815 240.505 279.462 242.808 281.06 245.045C281.966 246.311 282.856 247.556 283.567 248.776Z" fill="#11470D"/>
<path fill-rule="evenodd" clip-rule="evenodd" d="M559.58 728.536C564.108 726.765 569.691 727.592 574.438 727.677C580.399 727.785 586.376 728.237 592.319 728.702C603.732 729.597 615.087 729.219 626.51 730.286C632.181 730.816 637.856 731.305 643.531 731.788C648.5 732.211 654.27 733.529 659.231 732.581C661.279 732.189 666.807 730.262 665.782 727.263C664.992 724.949 658.769 723.522 656.742 722.864C651.973 721.313 647.049 720.202 642.228 718.82C639.752 718.111 637.286 717.347 634.679 717.594C632.466 717.803 630.135 719.454 627.893 719.264C624.578 718.984 622.869 714.82 620.437 712.984C616.565 710.059 613.695 711.622 610.726 714.845C608.531 717.227 606.44 720.832 602.839 721.046C598.258 721.317 597.366 717.389 599.388 714.058C601.25 710.989 606.32 707.843 606.592 704.018C606.764 701.601 602.898 695.132 600.672 694.212C596.93 692.665 591.64 696.761 588.257 698.018C582.348 700.212 576.316 702.155 570.333 704.137C566.241 705.492 560.169 705.612 559.396 710.407C558.429 716.411 559.607 722.507 559.58 728.536ZM325.389 636.243C326.579 633.607 327.828 632.108 325.45 629.662C324.12 628.294 322.244 627.621 320.935 626.202C318.968 624.069 315.886 618.239 320.102 616.771C324.132 615.367 327.527 620.976 330.77 622.209C334.886 623.772 337.436 621.15 338.025 617.217C338.781 612.164 337.949 606.883 338.553 601.767C339.143 596.751 340.895 592.586 342.239 587.784C343.151 584.528 344.266 581.25 340.131 580.528C336.339 579.866 331.941 581.441 328.096 581.652C322.099 581.981 316.03 582.284 310.083 583.183C303.443 584.187 303.564 590.977 301.897 596.528C297.855 609.985 292.435 623.189 289.911 637.062C288.823 643.044 291.707 647.141 295.065 651.845C299.268 657.734 303.641 663.608 308.402 669.064C311.581 672.707 315.163 676.1 319.792 677.775C325.036 679.673 327.04 677.566 325.831 672.397C324.233 665.574 321.823 658.983 322.107 651.877C322.211 649.289 322.963 646.509 321.097 644.343C319.803 642.841 317.586 642.335 315.897 641.421C313.113 639.913 308.8 635.061 314.224 634.017C317.908 633.307 321.823 635.785 325.389 636.243ZM450.651 368.968C453.961 372.664 457.559 376.2 460.697 380.039C462.496 382.242 463.771 384.888 465.702 386.975C469.931 391.545 474.145 386.481 477.89 383.52C492.618 371.876 506.478 359.258 520.511 346.795C527.197 340.857 534.31 335.381 540.889 329.33C547.554 323.201 553.103 316.026 559.347 309.495C562.346 306.359 565.936 303.248 567.787 299.242C569.367 295.826 569.715 292.11 571.515 288.732C574.631 282.882 580.345 276.091 579.035 269.016C575.176 273.061 568.75 287.556 562.017 280.758C557.212 275.906 562.12 268.734 561.906 263.077C557.344 265.013 558.53 272.863 553.666 274.252C551.035 275.004 548.785 272.622 547.558 270.534C545.437 266.924 546.215 263.146 547.179 259.316C547.835 256.706 552.025 248.099 547.881 247.037C544.29 246.116 541.28 252.721 540.09 255.061C537.909 259.353 536.22 263.791 533.825 267.99C529.695 275.229 524.938 282.145 520.402 289.135C511.061 303.53 500.409 317.042 489.452 330.237C477.748 344.33 465.08 357.619 450.651 368.968ZM554.416 414.755C553.944 427.436 543.047 437.052 533.62 444.103C521.572 453.114 510.458 463.355 496.089 468.483C490.557 470.458 483.649 469.889 481.433 476.115C480.567 478.55 481.353 479.444 482.292 481.894C483.76 485.728 484.643 489.885 485.34 493.92C487.71 507.648 485.406 521.628 477.157 533.057C472.772 539.133 467.169 544.298 461.376 549.007C455.597 553.705 450.131 559.185 443.76 563.072C430.172 571.36 415.077 576.119 399.409 578.409C391.26 579.601 383.078 580.662 374.848 581.083C370.58 581.301 366.304 581.341 362.034 581.154C360.126 581.07 353.031 579.458 351.652 580.551C350.591 581.393 350.118 586.488 349.906 587.894C349.455 590.866 349.1 593.797 348.486 596.744C347.253 602.659 345.592 609.35 347.409 615.317C347.935 617.043 348.361 618.448 349.959 619.028C350.972 619.396 352.767 618.749 353.791 618.644C356.108 618.406 358.295 618.313 360.625 618.56C368.272 619.369 375.781 621.323 383.509 620.791C399.985 619.656 416.477 618.496 432.802 615.918C440.743 614.664 448.362 612.291 456.171 610.459C463.614 608.712 471.053 606.948 478 603.667C491.61 597.237 504.189 588.732 515.425 578.769C527.421 568.132 535.362 555.524 542.866 541.454C549.458 529.094 555.016 516.584 554.727 502.335C554.544 493.318 553.252 482.146 558.465 474.193C560.847 470.561 565.651 467.194 570.127 469.115C578.25 472.602 570.576 479.506 567.478 483.288C563.015 488.737 563.615 497.034 563.152 503.698C562.605 511.562 560.838 518.459 559.115 526.063C557.429 533.506 560.83 542.336 561.166 549.929C561.531 558.162 561.291 566.404 561.199 574.641C561.016 591.023 561.777 607.361 561.721 623.741C561.691 632.236 561.908 640.773 561.371 649.256C560.882 656.992 559.297 664.393 557.91 671.987C556.549 679.442 554.565 688.369 555.024 695.947C573.637 688.862 591.755 680.493 610.655 674.164C604.76 669.024 604.498 661.76 604.022 654.511C603.396 644.952 601.822 635.474 601.136 625.915C599.78 607.036 600.161 587.176 601.767 568.318C603.491 548.072 606.549 527.894 607.178 507.563C607.481 497.769 606.723 487.95 605.128 478.285C603.784 470.143 602.617 459.897 598.371 452.683C594.314 445.789 586.856 441.41 580.632 436.714C571.531 429.848 563.101 422.127 554.416 414.755ZM555.543 149.947C557.873 153.098 560.506 156.006 563.293 158.759C566.168 161.6 567.392 160.972 570.832 159.495C577.672 156.555 577.541 153.155 573.722 147.262C564.866 133.592 561.506 117.312 552.135 103.922C542.902 90.728 529.471 80.0684 515.371 72.4607C500.24 64.2968 483.843 61.699 466.788 61.9426C458.072 62.0674 449.301 62.6689 440.64 63.6455C432.214 64.5948 424.72 67.3597 416.564 69.4473C412.458 70.4978 408.224 71.3696 404.232 72.8133C400.73 74.0794 397.581 76.0349 394.043 77.2181C386.297 79.8061 378.502 82.6988 371.513 86.9316C364.68 91.071 358.524 95.4855 352.318 100.567C345.891 105.83 340.309 111.946 333.359 116.567C327.032 120.774 322 126.442 316.263 131.372C310.269 136.524 304.741 142.836 300.244 149.346C295.847 155.711 294.174 163.947 291.518 171.125C288.426 179.48 285.359 188.411 284.194 197.269C282.024 213.775 286.895 233.068 293.089 248.343C299.216 263.451 309.145 276.057 320.992 287.118C326.767 292.513 333.069 297.409 340.13 301.016C346.17 304.102 354.046 309.65 360.62 305.773C363.282 304.203 365.443 302.378 368.52 301.671C371.884 300.899 375.179 301.215 377.894 298.749C380.202 296.653 381.306 294.123 384.336 292.858C387.929 291.357 392.178 291.084 396.025 291.096C404.664 291.125 413.308 293.287 421.553 295.685C429.109 297.882 435.432 301.196 443.459 299.188C449.424 297.696 458.991 293.729 460.277 286.891C461.426 280.779 456.991 272.878 454.758 267.409C451.671 259.851 448.875 252.416 446.936 244.47C445.399 238.174 442.986 228.101 447.324 222.346C451.587 216.692 461.442 216.76 467.565 218.182C471.578 219.114 475.267 220.991 479.282 221.937C483.372 222.901 487.604 223.385 491.776 223.858C506.235 225.493 526.805 221.796 526.035 203.32C525.35 186.853 516.276 170.346 521.59 153.859C523.755 147.139 528.179 139.367 535.546 137.593C541.389 136.186 549.286 137.661 554.441 140.717C558.577 143.17 562.676 148.307 555.543 149.947ZM265.188 223.499C250.614 226.342 240.975 241.705 238.304 255.328C237.093 261.501 236.666 268.853 239.007 274.826C241.705 281.712 249.332 284.586 256.062 286.03C263.755 287.681 270.572 287.036 276.671 281.703C279.352 279.357 281.623 276.625 283.55 273.64C285.52 270.587 288.26 268.363 286.279 264.951C281.368 256.497 277.178 248.192 273.944 238.892C272.501 234.742 271.218 230.687 270.26 226.413C269.5 223.019 269.132 220.948 265.188 223.499ZM392.835 315.717C390.015 318.433 386.775 320.597 383.135 322.057C379.142 323.658 377.93 322.889 378.128 327.508C378.347 332.608 378.384 336.69 376.059 341.436C374.971 343.658 370.951 346.656 371.71 349.155C372.8 352.742 383.964 356.369 387.221 357.623C395.013 360.625 404.104 360.686 411.459 356.445C420.002 351.519 420.758 342.588 417.54 333.945C417.197 333.023 415.948 331.465 416.255 330.458C416.819 328.613 419.14 328.879 420.472 329.584C423.364 331.114 424.572 335.767 425.195 338.671C426.858 346.429 423.803 354.831 417.997 360.176C415.046 362.891 411.356 364.706 407.592 366.014C405.456 366.757 403.214 367.344 400.958 367.571C399.135 367.754 396.833 367.179 395.092 367.699C392.024 368.613 391.887 372.397 391.12 375.163C389.75 380.107 389.178 385.459 388.998 390.574C388.707 398.847 389.692 409.387 394.451 416.4C405.554 432.765 427.028 438.445 443.794 446.866C452.706 451.343 460.97 456.967 468.905 462.979C469.689 463.573 470.862 464.737 471.803 465.2C474.984 466.765 472.206 466.195 474.242 465.161C475.81 464.365 477.152 462.636 478.772 461.735C482.503 459.658 486.693 458.537 490.488 456.575C499.311 452.012 507.117 446.35 514.948 440.307C522.972 434.114 531.099 428.46 538.419 421.41C541.506 418.439 544.981 415.989 548.112 413.145C551.266 410.279 547.23 409.09 544.559 406.981C535.469 399.802 526.492 392.395 516.785 386.05C513.547 383.933 510.691 381.078 507.313 379.207C503.785 377.253 501.691 379.004 498.912 381.488C495.875 384.204 492.98 386.866 489.6 389.189C485.136 392.258 479.946 393.735 475.458 396.657C478.339 399.673 485.365 400.682 486.384 405.251C487.418 409.881 480.523 413.494 477.3 415.282C471.61 418.44 465.333 420.357 458.992 421.727C453.716 422.866 445.894 421.151 441.666 425.133C440.46 422.583 439.33 421.251 441.314 418.812C443.296 416.377 446.829 415.958 449.626 415.021C457.179 412.49 464.619 409.118 471.928 405.957C470.958 403.687 468.533 402.133 466.685 400.655C464.046 398.544 461.829 396.205 459.681 393.58C455.583 388.573 451.908 383.232 448.005 378.078C446.313 375.842 444.769 373.61 441.678 374.848C438.949 375.941 436.286 378.775 433.664 380.242C427.733 383.562 422.545 386.749 416.017 388.861C413.387 389.712 402.616 392.136 405.481 385.552C406.33 383.6 409.168 382.796 410.916 381.943C414.146 380.365 417.366 378.757 420.478 376.955C426.871 373.255 432.509 368.474 438.49 364.17C445.088 359.422 451.799 354.814 457.994 349.537C451.83 345.454 444.992 342.464 438.618 338.73C432.175 334.955 425.685 331.543 419.021 328.19C413.715 325.52 408.322 322.673 403.484 319.223C401.561 317.85 394.944 312.148 392.835 315.717ZM586.648 182.921C585.837 183.125 585.035 183.357 584.239 183.615C589.643 191.877 583.677 202.105 585.368 211.044C590.357 208.094 591.01 196.619 598.585 198.74C606.743 201.026 602.683 211.067 605.153 216.81C609.009 213.44 613.51 216.59 615.101 220.588C616.823 224.92 614.435 228.919 615.238 233.206C616.068 237.642 618.547 234.731 619.921 232.115C621.672 228.78 623.202 224.272 622.557 220.457C621.772 215.818 618.657 211.504 616.727 207.29C614.81 203.103 612.994 198.83 610.219 195.115C604.964 188.081 595.836 181.761 586.648 182.921ZM638.905 281.994C635.378 273.189 630.157 265.126 626.821 256.251C625.846 253.656 625.301 249.519 622.721 247.92C621.026 246.869 618.77 247.5 616.901 246.935C615.037 246.372 613.073 245.03 611.736 243.645C609.291 241.112 608.498 237.636 605.614 235.43C601.892 232.583 599.017 231.491 597.246 226.734C595.856 222.998 595.853 222.45 591.675 223.284C587.114 224.194 583.409 223.079 580.262 219.516C574.933 213.483 574.344 204.984 576.959 197.702C578.182 194.296 580.31 190.334 578.543 186.769C576.9 183.456 572.913 181.078 570.386 178.438C563.999 171.765 559 163.956 553.011 156.954C551.577 155.279 550.112 153.608 549.007 151.688C548.305 150.468 547.891 148.37 546.264 148.025C543.465 147.431 539.556 152.272 538.148 154.035C527.838 166.939 535.214 184.514 536.47 199.061C537.109 206.469 538.546 215.35 535.26 222.326C532.165 228.899 524.329 232.18 517.726 234.01C508.819 236.479 499.253 236.37 490.19 234.871C485.443 234.086 480.887 232.746 476.393 231.048C471.796 229.31 467.014 226.321 462.328 229.474C456.28 233.545 458.149 241.712 459.477 247.664C461.647 257.387 465.436 266.456 468.788 275.797C471.603 283.642 473.882 293.484 467.964 300.504C462.053 307.515 452.25 311.903 443.126 311.539C424.21 310.785 406.943 296.681 387.613 302.45C391.245 303.951 395.084 304.834 398.633 306.553C402.917 308.627 406.882 311.384 411.041 313.692C419.024 318.12 427.035 322.485 434.837 327.23C441.887 331.516 448.552 336.212 455.28 340.963C463.664 346.882 468.08 340.326 473.458 333.932C485.2 319.975 496.377 305.195 507.045 290.404C516.32 277.546 524.929 264.12 531.636 249.755C534.036 244.615 538.077 235.896 545.1 236.91C551.334 237.81 554.97 245.332 558.193 249.936C560.442 248.325 562.37 246.17 565.406 247.057C567.925 247.791 569.666 250.375 570.781 252.579C571.547 254.094 572.069 259.199 573.351 259.967C574.262 260.514 577.746 259.339 579.299 259.698C584.614 260.926 586.313 267.758 586.259 272.499C586.184 279.035 583.453 285.574 581.215 291.626C576.199 305.193 567.605 315.796 558.132 326.516C548.517 337.395 538.452 347.256 527.608 356.91C524.932 359.292 522.282 361.702 519.673 364.158C517.533 366.171 514.145 368.266 512.471 370.632C509.372 375.009 517.662 376.996 520.747 378.598C534.02 385.49 546.252 394.568 557.941 403.824C569.996 413.37 582.118 422.953 593.701 433.068C605.032 442.963 615.735 453.509 627.667 462.711C639.927 472.164 652.772 480.892 665.37 489.887C677.98 498.891 690.25 508.364 702.845 517.38C715.154 526.19 728.367 533.743 741.314 541.565C748.086 545.658 754.894 549.691 761.698 553.731C767.2 556.998 773.171 562.075 779.694 562.488C785.571 562.86 791.145 565.023 794.658 558.633C797.324 553.782 796.22 547.109 793.885 542.397C791.036 536.645 786.578 531.357 782.997 526.034C778.878 519.914 775.056 513.617 770.991 507.465C767.094 501.566 762.762 496.122 758.414 490.563C754.006 484.927 750.661 478.575 746.732 472.608C738.335 459.851 729.701 447.325 721.74 434.283C703.482 404.371 687.13 373.492 671.504 342.149C670.128 339.387 638.006 282.485 638.905 281.994ZM613.198 465.894C623.011 499.812 617.352 534.302 615.34 568.807C614.323 586.253 614.168 603.808 613.717 621.278C613.497 629.77 613.513 638.269 613.865 646.758C614.043 651.028 614.355 655.284 614.659 659.546C614.928 663.315 613.917 667.482 614.392 671.118C615.001 675.776 624.249 676.69 621.408 682.669C619.502 686.679 612.827 687.291 609.251 688.982C610.841 690.823 613.328 693.578 615.98 693.752C618.368 693.907 620.213 691.836 622.354 691.053C624.255 690.357 626.87 689.683 628.07 691.902C629.327 694.225 626.695 696.807 625.654 698.607C629.193 699.292 631.641 697.179 634.834 697.373C638.193 697.577 638.345 700.882 640.553 702.795C643.077 704.982 647.485 705.452 650.597 706.373C654.218 707.442 657.857 708.77 661.154 710.628C667.049 713.949 672.112 720.224 674.291 726.646C676.548 733.302 673.023 739.062 667.772 743.147C665.815 744.668 663.011 746.436 660.416 745.616C657.45 744.678 656.987 742.265 653.373 742.444C650.127 742.605 647.046 743.901 643.783 744.067C638.987 744.312 634.196 743.438 629.395 743.622C610.021 744.366 590.645 744.532 571.304 742.669C566.299 742.187 561.394 741.793 556.461 741.635C552.625 741.513 552.304 738.652 551.654 735.06C550.084 726.386 553.556 717.846 551.837 709.417C551.951 709.973 549.235 708.526 548.908 708.251C546.914 706.573 546.248 704.189 545.655 701.711C544.073 695.114 544.089 688.392 544.578 681.664C545.69 666.392 548.531 651.262 548.299 635.91C548.181 628.172 548.415 620.452 548.417 612.717C548.419 605.612 549.062 598.6 549.122 591.544C549.253 576.074 550.882 560.777 551.336 545.324C548.116 548.456 546.408 552.824 544.363 556.733C541.847 561.539 539.041 566.296 535.968 570.768C529.624 580.004 521.112 587.521 512.294 594.335C495.466 607.338 477.184 617.409 456.567 622.924C434.248 628.894 411.676 632.925 388.667 635.189C383.343 635.713 377.96 635.997 372.625 635.478C369.131 635.139 363.452 632.316 360.132 633.748C356.359 635.376 355.6 639.291 350.653 638.193C348.765 637.774 347.398 636.513 345.745 635.663C343.314 634.412 343.217 635.276 340.896 635.435C338.308 635.613 336.757 634.32 334.501 636.404C332.586 638.173 332.772 639.413 334.521 641.069C336.98 643.397 340.916 643.787 343.377 646.218C345.772 648.582 345.343 651.488 341.644 651.523C337.922 651.559 334.614 648.909 330.977 648.564C331.752 659.324 334.99 671.345 331.4 681.902C329.734 686.799 326.161 689.954 320.832 689.92C311.914 689.863 304.092 681.659 298.721 675.269C295.752 671.737 293.345 667.768 290.479 664.148C287.548 660.448 284.405 656.727 282.727 652.252C280.942 647.491 281.463 642.713 282.461 637.826C283.696 631.776 284.844 625.665 286.337 619.673C289.232 608.054 295.055 597.447 297.995 585.863C299.107 581.48 299.093 576.337 301.9 572.579C304.871 568.6 309.494 568.344 314.079 568.599C319.754 568.914 325.425 569.542 331.07 570.184C334.635 570.589 342.446 573.16 345.347 570.969C346.346 570.215 346.348 568.238 347.516 567.556C348.642 566.898 350.46 567.37 351.691 567.462C357.786 567.914 363.934 568.463 370.041 568.641C392.741 569.305 416.695 565.767 436.962 555.222C446.367 550.328 453.532 542.624 461.091 535.348C468.524 528.193 475.002 520.492 477.002 510.105C478.828 500.622 478.137 489.281 475.104 480.102C472.15 471.161 461.665 465.745 454.034 461.336C443.452 455.222 432.218 450.155 420.817 445.766C419.007 445.07 416.807 444.183 414.817 444.539C412.376 444.976 410.737 447.09 408.517 448.024C405.878 449.133 402.641 449.139 399.856 449.787C397.156 450.415 394.524 451.279 391.774 451.694C383.113 453 370.942 451.957 363.784 446.425C352.084 437.383 359.153 424.586 362.912 413.58C358.938 413.446 355.629 414.375 351.836 412.675C348.057 410.98 345.102 407.98 343.379 404.222C340.245 397.384 342.055 389.527 342.98 382.397C343.398 379.173 343.875 375.974 345.105 372.946C346.058 370.601 347.622 368.366 348.2 365.886C348.836 363.154 348.011 362.995 345.733 361.689C342.22 359.675 339.692 357.359 337.542 353.824C333.331 346.901 333.227 339.344 336.677 332.061C338.074 329.114 341.406 325.061 341.027 321.619C340.701 318.657 337.349 316.35 335.375 314.411C329.279 308.422 322.798 302.893 316.038 297.669C312.879 295.227 309.399 293.011 306.528 290.237C304.424 288.205 302.287 283.784 299.41 282.715C296.53 281.646 294.612 284.862 292.606 286.586C289.479 289.273 286.482 292.365 283.074 294.694C276.962 298.872 269.384 298.09 262.481 296.756C255.271 295.361 248.584 292.906 242.436 288.855C239.994 287.245 237.141 283.976 234.134 283.714C230.922 283.435 227.432 286.628 225.136 288.545C219.143 293.55 217.344 301.324 213.853 308.048C209.955 315.557 208.299 323.351 209.36 331.792C210.314 339.386 213.239 345.124 217.59 351.258C218.49 352.527 220.597 354.924 219.057 356.327C217.173 358.044 213.313 354.601 212.048 353.489C199.483 342.438 192.342 325.787 196.421 309.118C198.61 300.168 202.893 291.887 207.867 284.186C209.982 280.91 212.045 277.635 215.723 275.964C219.91 274.063 224.654 274.289 229.126 273.833C226.033 258.691 225.065 242.214 234.57 229.017C241.864 218.89 256.802 210.029 268.64 218.241C268.155 207.078 266.564 196.477 269.535 185.485C270.866 180.56 272.69 175.767 274.932 171.182C277.128 166.69 280.161 162.88 281.935 158.204C288.935 139.758 302.366 123.281 316.711 110.042C331.212 96.6596 345.441 80.3337 363.707 71.9615C382.763 63.2258 402.17 55.3756 422.832 51.4064C444.277 47.2863 466.32 46.4406 487.924 50.3414C506.862 53.7612 524.389 65.2595 538.719 77.6555C555.071 91.8004 565.628 108.853 573.979 128.606C575.813 132.945 577.582 137.321 579.832 141.468C582.328 146.069 585.534 150.348 587.37 155.285C589.007 159.688 589.283 164.465 586.367 168.399C584.317 171.165 580.111 171.789 578.319 174.319C577.414 175.595 577.505 176.809 579.494 177.189C581.548 177.581 582.527 175.29 584.004 174.371C587.68 172.083 592.867 174.033 596.583 175.332C605.396 178.413 612.294 183.947 617.568 191.617C622.615 198.958 625.967 207.298 629.299 215.507C631.402 220.686 633.403 225.831 634.561 231.318C634.996 233.382 635.603 238.978 632.341 236.526C631.018 235.532 629.128 243.076 629.484 244.277C630.725 248.455 635.149 252.372 637.752 255.755C643.874 263.707 647.974 272.615 652.292 281.609C661.646 301.085 672.062 319.992 682.069 339.131C702.448 378.106 724.719 415.584 748.079 452.838C759.653 471.295 771.585 489.437 783.957 507.37C789.417 515.283 794.893 523.201 800.233 531.195C804.772 537.988 809.251 545.552 808.083 554.03C807.014 561.793 802.402 568.028 794.944 570.567C790.948 571.928 786.203 573.496 781.926 573.078C777.249 572.621 773.122 569.492 769.224 567.143C751.308 556.346 733.39 545.56 715.463 534.783C695.414 522.73 677.078 508.419 657.95 495.018C648.217 488.2 638.181 482.055 628.04 475.883C625.756 474.493 615.395 464.535 613.198 465.894Z" fill="#171717"/>
<path fill-rule="evenodd" clip-rule="evenodd" d="M439.602 500.207C434.705 507.417 429.555 514.193 422.662 519.664C415.4 525.427 407.806 530.096 399.698 534.568C385.399 542.454 366.232 549.438 349.624 545.863C344.901 544.847 337.345 540.714 341.451 534.814C343.515 531.849 347.942 532.622 351.076 532.785C356.125 533.049 360.54 533.336 365.378 531.638C374.267 528.515 383.217 525.57 391.897 521.895C400.304 518.334 407.677 513.451 415.39 508.654C422.624 504.155 428.142 498.77 434.497 493.331C436.237 491.842 439.229 489.235 440.875 492.132C442.065 494.225 440.254 498.16 439.602 500.207Z" fill="#171717"/>
<path fill-rule="evenodd" clip-rule="evenodd" d="M637.483 153.893C636.936 157.016 635.456 163.23 631.061 162.381C625.456 161.299 628.217 150.325 628.132 146.6C627.76 130.368 622.467 114.76 614.631 100.686C610.734 93.6898 605.934 87.2195 602.393 80.0227C601.705 78.6243 599.617 75.1562 601.134 73.6392C602.955 71.8174 606.447 74.5666 607.731 75.8667C612.693 80.8942 616.646 88.4312 620.476 94.3471C625.591 102.245 630.109 110.587 633.353 119.443C637.269 130.14 639.47 142.547 637.483 153.893Z" fill="#171717"/>
<path fill-rule="evenodd" clip-rule="evenodd" d="M647.97 101.985C648.494 104.8 651.056 112.459 646.487 113.138C641.308 113.908 639.699 101.147 638.261 97.7657C637.503 95.9834 633.463 88.1337 635.569 86.425C639.953 82.8676 646.931 99.72 647.97 101.985Z" fill="#171717"/>
<path fill-rule="evenodd" clip-rule="evenodd" d="M404.219 481.815C399.303 486.294 393.596 486.031 387.391 485.605C384.24 485.388 376.943 483.522 382.014 479.614C384.663 477.573 405.446 476.169 404.219 481.815Z" fill="#171717"/>
<path fill-rule="evenodd" clip-rule="evenodd" d="M787.271 563.824C787.621 563.129 790.57 559.793 791.206 561.142C791.807 562.414 788.05 563.786 787.271 563.824Z" fill="#171717"/>
<path fill-rule="evenodd" clip-rule="evenodd" d="M396.271 316.216C395.666 317.463 393.141 316.374 392.271 316.563C393.453 314.032 394.858 314.574 396.271 316.216Z" fill="#171717"/>
<path fill-rule="evenodd" clip-rule="evenodd" d="M586.271 183.824C586.008 184.824 585.746 185.824 585.484 186.824C585.08 186.075 584.675 185.326 584.271 184.576C584.937 184.326 585.605 184.075 586.271 183.824Z" fill="#171717"/>
<path fill-rule="evenodd" clip-rule="evenodd" d="M591.099 372.759C597.408 373.395 603.738 373.717 610.072 373.912C615.419 374.076 617.615 373.065 618.298 367.508C619.107 360.92 619.383 354.273 620.192 347.682C620.559 344.688 623.463 338.705 619.965 337.102C617.033 335.759 612.46 337.683 609.389 337.909C605.968 338.161 600.806 337.118 597.782 339.146C594.549 341.314 595.253 348.906 594.702 352.469C593.652 359.262 592.386 366.009 591.099 372.759ZM588.089 340.762C582.371 341.194 576.634 341.535 570.932 342.144C568.394 342.416 563.258 343.671 561.119 341.824C556.098 337.491 574.863 335.97 576.992 335.628C580.58 335.052 586.72 335.817 589.02 332.43C591.295 329.08 590.72 323.451 591.308 319.562C592.193 313.709 593.205 307.864 593.796 301.973C593.994 299.993 593.711 293.452 595.802 292.48C600.608 290.246 599.098 313.267 599.019 314.995C598.884 317.966 598.735 320.951 598.321 323.897C598.088 325.558 597.267 327.804 597.773 329.472C599.222 334.255 607.454 331.497 611.204 331.115C615.406 330.687 621.895 332.315 623.286 327.13C625.034 320.614 624.78 313.214 625.428 306.51C625.607 304.656 626.075 290.81 629.492 291.883C633.307 293.082 631.818 304.652 631.783 307.631C631.744 310.993 631.757 314.357 631.529 317.713C631.325 320.728 630.475 324.423 631.104 327.41C632.207 332.647 638.416 329.862 640.218 334.028C641.93 337.987 632.596 334.883 630.853 336.243C628.25 338.274 628.876 346.76 628.504 349.731C627.688 356.258 626.121 363.035 625.611 369.542C625.21 374.679 629.339 373.997 633.541 373.625C637.145 373.306 641.104 372.45 644.716 372.931C647.618 373.316 651.673 375.99 647.448 377.769C640.842 380.552 627.391 374.867 624.072 383.318C623.446 384.912 620.533 403.4 616.873 394.274C615.343 390.459 619.089 384.474 615.094 381.551C613.709 380.537 611.646 380.716 610.039 380.604C606.082 380.328 602.1 380.234 598.135 380.152C594.182 380.07 590.63 379.274 589.103 383.604C587.914 386.978 588.046 390.753 587.096 394.206C586.383 396.794 584.043 401.324 581.616 397.09C580.022 394.309 581.242 389.45 581.557 386.426C581.714 384.912 582.617 381.779 581.468 380.507C580.235 379.142 576.935 379.881 575.375 380.004C570.872 380.361 562.486 382.528 559.039 378.444C556.156 375.027 562.15 374.962 564.507 374.731C566.935 374.493 569.364 374.273 571.79 374.018C574.461 373.736 577.997 374.112 580.511 373.275C584.733 371.869 584.432 366.129 584.709 362.406C585.252 355.133 586.888 347.949 588.089 340.762Z" fill="#171717"/>
<path fill-rule="evenodd" clip-rule="evenodd" d="M662.271 356.295C661.93 360.494 661.475 365.202 660.119 369.193C659.093 372.209 657.022 373.126 656.316 369.285C655.868 366.85 658.843 353.132 662.271 356.295Z" fill="#171717"/>
<path fill-rule="evenodd" clip-rule="evenodd" d="M395.699 328.646C394.015 327.437 386.04 321.078 391.804 320.827C394.747 320.698 401.088 325.539 401.27 328.225C401.316 328.903 399.866 329.254 399.945 329.91C400.095 331.159 401.944 331.75 402.54 332.743C403.853 334.933 403.308 339.26 401.612 341.342C397.744 346.09 393.449 338.052 396.443 336.475C395.776 336.826 386.822 332.275 386.486 331.247C384.644 325.614 395.246 330.921 395.699 328.646Z" fill="#171717"/>
<path fill-rule="evenodd" clip-rule="evenodd" d="M409.755 350.812C407.71 350.876 403.602 350.734 402.07 349.274C399.222 346.559 404.777 346.199 406.402 344.934C408.68 343.163 409.127 337.401 412.703 340.966C416.25 344.503 413.131 348.617 409.755 350.812Z" fill="#171717"/>
<path fill-rule="evenodd" clip-rule="evenodd" d="M380.271 335.85C383.969 335.308 392.196 343.28 388.204 343.81C385.562 344.161 380.848 337.98 380.271 335.85Z" fill="#171717"/>
</svg>
